<?xml version="1.0" encoding="UTF-8" standalone="no"?>
<!-- Created with Inkscape (http://www.inkscape.org/) -->

<svg
   width="50mm"
   height="50mm"
   viewBox="0 0 50 50"
   version="1.1"
   id="svg1"
   inkscape:version="1.3.2 (091e20e, 2023-11-25, custom)"
   sodipodi:docname="icon.svg"
   inkscape:export-filename="icon_32.png"
   inkscape:export-xdpi="16.256001"
   inkscape:export-ydpi="16.256001"
   xmlns:inkscape="http://www.inkscape.org/namespaces/inkscape"
   xmlns:sodipodi="http://sodipodi.sourceforge.net/DTD/sodipodi-0.dtd"
   xmlns:xlink="http://www.w3.org/1999/xlink"
   xmlns="http://www.w3.org/2000/svg"
   xmlns:svg="http://www.w3.org/2000/svg">
  <sodipodi:namedview
     id="namedview1"
     pagecolor="#ffffff"
     bordercolor="#000000"
     borderopacity="0.25"
     inkscape:showpageshadow="2"
     inkscape:pageopacity="0.0"
     inkscape:pagecheckerboard="0"
     inkscape:deskcolor="#d1d1d1"
     inkscape:document-units="mm"
     inkscape:zoom="4.1373683"
     inkscape:cx="143.32782"
     inkscape:cy="74.806006"
     inkscape:window-width="2560"
     inkscape:window-height="1377"
     inkscape:window-x="-8"
     inkscape:window-y="-8"
     inkscape:window-maximized="1"
     inkscape:current-layer="layer2" />
  <defs
     id="defs1">
    <linearGradient
       id="linearGradient1"
       inkscape:collect="always">
      <stop
         style="stop-color:#e832b6;stop-opacity:1;"
         offset="0"
         id="stop1" />
      <stop
         style="stop-color:#2c9475;stop-opacity:1;"
         offset="1"
         id="stop2" />
    </linearGradient>
    <linearGradient
       inkscape:collect="always"
       xlink:href="#linearGradient1"
       id="linearGradient2"
       x1="37.666355"
       y1="45.404266"
       x2="18.225655"
       y2="7.6739607"
       gradientUnits="userSpaceOnUse" />
  </defs>
  <g
     inkscape:label="Layer 1"
     inkscape:groupmode="layer"
     id="layer1"
     style="display:none">
    <path
       id="path1"
       style="fill:url(#linearGradient2);fill-opacity:1;stroke:none;stroke-width:0.349998"
       d="m 17.784836,29.367929 a 5.658682,5.658682 0 0 1 -5.658682,5.658682 5.658682,5.658682 0 0 1 -5.6586822,-5.658682 5.658682,5.658682 0 0 1 5.6586822,-5.658683 5.658682,5.658682 0 0 1 5.658682,5.658683 z M 24.528511,0.78405783 C 12.609019,0.81992573 2.4189046,10.131613 1.0128377,21.210295 c -0.70238376,5.004954 -0.10538104,9.423326 1.8776724,12.564023 1.9830542,3.140694 5.3954276,4.927612 9.9846269,4.609616 2.344338,-0.162446 4.09373,-1.128425 5.324604,-2.468632 1.230873,-1.340207 1.957104,-3.032286 2.393683,-4.677932 0.672376,-2.534442 0.650034,-4.547307 0.609532,-5.547457 0.367036,0.240871 0.464457,0.416372 1.200489,0.608868 1.301077,0.340271 3.139367,0.272548 5.053996,-1.187889 2.816087,-2.148047 2.454242,-5.190575 2.298176,-6.154334 3.161503,-0.08855 5.225812,0.700843 6.547644,1.945324 1.406913,1.324584 2.103485,3.134245 2.546896,4.803286 0.404332,1.521944 0.318304,4.729526 -1.072482,7.925887 -0.585987,1.346737 -1.398709,2.696961 -2.491183,3.945697 -4.20184,4.286033 -8.856892,4.838872 -11.084302,4.236868 -3.036872,-0.820773 -6.504537,-5.848242 -11.757505,-1.744358 -2.6016778,2.032561 -1.47152,7.36905 3.446932,8.4545 3.775035,0.833108 15.047033,1.521616 22.926703,-3.624683 6.29869,-3.530218 9.907925,-10.292453 10.41309,-18.84305 C 50.045835,12.270858 39.778725,1.4783803 25.687216,0.80992473 25.299354,0.79152613 24.913011,0.78290123 24.528511,0.78405783 Z m 0.0019,1.09237957 c 0.366389,-0.00124 0.734812,0.00635 1.104318,0.023878 C 39.200054,2.5438104 48.923731,12.77412 48.14292,25.990368 47.518579,36.558183 42.204359,43.996579 32.778638,45.987478 29.644313,46.649509 25.698805,46.374094 22.634167,45.711565 21.101848,45.3803 19.783517,44.948602 18.918618,44.521023 18.486169,44.307234 18.167805,44.091734 18.006643,43.9294 c -0.161161,-0.162333 -0.129514,-0.19235 -0.135304,-0.168466 0.02499,-0.103127 0.006,-0.06199 0.0325,-0.07494 0.02649,-0.01296 0.160144,-0.0437 0.390656,-0.0325 0.461027,0.02242 1.247263,0.187949 2.261034,0.323668 2.027539,0.271439 5.019035,0.39116 8.867044,-1.093042 4.988264,-1.924007 7.867881,-5.398422 9.355199,-8.816637 1.487318,-3.418213 1.629937,-6.744927 1.125542,-8.643527 -0.465319,-1.751502 -1.217578,-3.777246 -2.852657,-5.316645 -1.635078,-1.539397 -4.139384,-2.530892 -7.888743,-2.28889 l -0.639377,0.04046 0.142599,0.626775 c 0,0 0.842111,3.68919 -1.869714,5.757708 -1.669718,1.273625 -3.072938,1.273022 -4.116154,1.000188 -1.043208,-0.272838 -1.669411,-0.832383 -1.669411,-0.832383 l -1.02539,-0.917281 0.1174,1.370945 c 0,0 0.252399,3.027529 -0.561114,6.093979 -0.406756,1.533227 -1.079025,3.059782 -2.143637,4.21896 -1.064613,1.159178 -2.506729,1.973592 -4.597014,2.118433 C 8.5200769,37.592777 5.6002528,36.023185 3.8130336,33.192647 2.0258145,30.36211 1.415143,26.194569 2.0932158,21.362848 v -0.0046 -0.0027 C 3.4220814,10.853775 13.17244,1.9149348 24.530501,1.8764374 Z" />
  </g>
  <g
     inkscape:groupmode="layer"
     id="layer2"
     inkscape:label="Layer 2"
     transform="matrix(1.0080608,0,0,1,-0.3945101,0)"
     style="stroke-width:0.995994">
    <ellipse
       style="fill:#202b44;fill-opacity:1;stroke:none;stroke-width:0.398398;stroke-linejoin:round"
       id="path9"
       cx="25.191446"
       cy="-25"
       rx="24.800091"
       ry="25"
       transform="scale(1,-1)" />
    <g
       id="g9"
       transform="matrix(0.87600833,0,0,0.87600833,3.4094649,2.9620784)"
       style="stroke-width:1.13697">
      <path
         id="path2"
         style="fill:#d7962d;fill-opacity:1;stroke:none;stroke-width:0.397939"
         d="M 26.509961,25.592753 C 19.424172,18.784406 12.735676,12.37002 8.3479183,8.1901978 3.233425,13.575257 1.3309341,20.721153 1.406367,24.556641 1.534443,31.068833 3.8368163,38.625678 12.9816,37.922233 c 9.144785,-0.703443 7.737669,-13.365592 7.737669,-13.365592 0,0 2.497638,2.998136 5.790692,1.036112 z M 12.444874,23.853324 c 3.012871,1.98e-4 5.455241,2.462255 5.455431,5.499406 9.3e-5,3.037353 -2.44236,5.499725 -5.455431,5.499923 -3.0132716,8.9e-5 -5.4560368,-2.462367 -5.4559434,-5.499923 1.898e-4,-3.037354 2.4428721,-5.499495 5.4559434,-5.499406 z" />
      <path
         id="path8"
         style="fill:#d7962d;fill-opacity:1;stroke:none;stroke-width:0.397939"
         d="m 42.987494,41.445532 c -1.770552,-1.705134 -3.305403,-3.180668 -5.756345,-5.539713 -2.357676,3.199094 -5.790437,5.354274 -7.874542,6.300907 -4.927695,2.238235 -14.575557,-7.941887 -17.208034,-0.06408 -2.2700219,6.793147 13.112427,8.483479 22.191843,4.79609 3.44124,-1.397578 6.350392,-3.188001 8.647078,-5.493204 z" />
      <path
         id="path7"
         style="fill:#a2c4d1;fill-opacity:1;stroke:none;stroke-width:0.397939"
         d="m 25.223767,1.1968262 c -0.353123,-0.00318 -0.704018,0.0027 -1.051409,0.018087 C 17.049081,1.5303347 11.917213,4.4320812 8.3479183,8.1901978 12.735676,12.37002 19.424172,18.784406 26.509961,25.592753 c 0.219331,-0.130679 0.442591,-0.283399 0.668472,-0.460437 3.194353,-2.503618 2.429876,-6.714836 2.429876,-6.714836 0,0 9.55888,-1.262616 10.168058,9.528618 0.175822,3.114602 -0.937102,5.777692 -2.545218,7.959721 2.450942,2.359045 3.985793,3.834579 5.756345,5.539713 3.814523,-3.828668 5.938594,-9.078295 5.997796,-16.313216 C 49.107057,10.251445 36.170569,1.295322 25.223767,1.1968262 Z" />
    </g>
  </g>
</svg>
